<?xml version="1.0" standalone="no"?>
<!DOCTYPE svg PUBLIC "-//W3C//DTD SVG 20010904//EN"
 "http://www.w3.org/TR/2001/REC-SVG-20010904/DTD/svg10.dtd">
<svg version="1.0" xmlns="http://www.w3.org/2000/svg"
 width="512.000000pt" height="512.000000pt" viewBox="0 0 512.000000 512.000000"
 preserveAspectRatio="xMidYMid meet">
<metadata>
Created by potrace 1.11, written by Peter Selinger 2001-2013
</metadata>
<g transform="translate(0.000000,512.000000) scale(0.100000,-0.100000)"
fill="#000000" stroke="none">
<path d="M2420 4903 c-420 -29 -800 -155 -1145 -380 -345 -225 -641 -560 -820
-928 -112 -230 -182 -452 -221 -705 -25 -160 -25 -509 0 -670 77 -499 294
-937 639 -1296 406 -423 895 -666 1457 -725 142 -15 463 -6 585 15 536 96 958
320 1332 710 345 359 562 798 639 1296 25 161 25 511 1 668 -69 436 -237 819
-502 1147 -83 103 -247 267 -350 351 -174 143 -448 297 -670 379 -289 106
-649 159 -945 138z m485 -1507 c233 -68 399 -275 422 -528 l6 -68 -170 0 -170
0 -17 83 c-40 185 -131 255 -320 245 -171 -9 -276 -116 -312 -316 -18 -103
-18 -403 1 -506 39 -221 160 -326 361 -313 155 9 227 72 266 230 l21 87 169 0
168 0 0 -38 c0 -62 -36 -187 -77 -264 -76 -145 -226 -255 -398 -293 -114 -26
-324 -17 -421 18 -167 59 -284 165 -364 330 -71 147 -90 251 -90 492 0 207 18
330 67 451 95 238 300 392 548 413 104 8 235 -2 310 -23z m-2035 -589 c0 -653
0 -657 61 -730 55 -66 98 -82 224 -82 98 0 116 3 159 25 61 31 92 72 117 151
18 57 19 99 19 645 l0 584 176 0 175 0 -3 -612 c-4 -538 -6 -620 -21 -671 -27
-92 -66 -163 -128 -230 -66 -72 -140 -120 -242 -155 -66 -24 -86 -26 -247 -26
-166 -1 -179 0 -257 27 -197 68 -322 206 -367 404 -14 62 -16 156 -16 667 l0
596 175 0 175 0 0 -593z m3312 91 l3 -223 208 -3 207 -2 0 -155 0 -155 -210 0
-210 0 0 -240 0 -240 -165 0 -165 0 0 240 0 240 -210 0 -210 0 0 155 0 155
210 0 210 0 0 225 0 225 165 0 165 0 2 -222z"/>
</g>
</svg>
