<?xml version="1.0" standalone="no"?>
<!DOCTYPE svg PUBLIC "-//W3C//DTD SVG 20010904//EN"
 "http://www.w3.org/TR/2001/REC-SVG-20010904/DTD/svg10.dtd">
<svg version="1.0" xmlns="http://www.w3.org/2000/svg"
 width="192.000000pt" height="192.000000pt" viewBox="0 0 192.000000 192.000000"
 preserveAspectRatio="xMidYMid meet">
<metadata>
Created by potrace 1.11, written by Peter Selinger 2001-2013
</metadata>
<g transform="translate(0.000000,192.000000) scale(0.100000,-0.100000)"
fill="#000000" stroke="none">
<path d="M855 1830 c-159 -22 -323 -90 -437 -180 -143 -114 -264 -299 -309
-475 -118 -458 147 -922 606 -1061 81 -25 105 -28 245 -28 140 0 164 3 245 28
293 89 512 308 601 601 25 81 27 105 27 240 0 134 -2 159 -26 238 -77 252
-236 443 -461 552 -148 72 -344 106 -491 85z m-505 -779 c0 -121 4 -231 10
-246 22 -57 125 -68 172 -18 23 24 23 29 26 254 l3 229 60 0 59 0 0 -234 c0
-249 -3 -272 -48 -320 -43 -45 -97 -66 -178 -66 -96 0 -163 33 -202 98 l-27
47 -3 238 -3 237 65 0 66 0 0 -219z m792 184 c45 -32 98 -118 98 -162 0 -22
-4 -23 -65 -23 -62 0 -65 1 -65 24 0 33 -43 82 -79 89 -46 9 -97 -10 -123 -46
-20 -28 -23 -46 -26 -147 -3 -98 0 -120 16 -150 24 -45 76 -73 122 -65 42 7
90 55 90 90 0 24 2 25 65 25 61 0 65 -1 65 -22 0 -39 -46 -124 -81 -150 -47
-35 -92 -48 -163 -48 -75 0 -130 24 -175 75 -57 65 -66 96 -66 235 0 112 2
130 23 170 55 106 116 141 239 137 72 -2 86 -5 125 -32z m406 -152 l3 -83 74
0 75 0 0 -55 0 -55 -75 0 -74 0 -3 -87 -3 -88 -57 -3 -57 -3 -3 88 -3 88 -77
3 -78 3 0 54 0 55 80 0 80 0 0 85 0 86 58 -3 57 -3 3 -82z"/>
</g>
</svg>
