<?xml version="1.0" standalone="no"?>
<!DOCTYPE svg PUBLIC "-//W3C//DTD SVG 20010904//EN"
 "http://www.w3.org/TR/2001/REC-SVG-20010904/DTD/svg10.dtd">
<svg version="1.0" xmlns="http://www.w3.org/2000/svg"
 width="471.000000pt" height="471.000000pt" viewBox="0 0 471.000000 471.000000"
 preserveAspectRatio="xMidYMid meet">
<metadata>
Created by potrace 1.11, written by Peter Selinger 2001-2013
</metadata>
<g transform="translate(0.000000,471.000000) scale(0.100000,-0.100000)"
fill="#000000" stroke="none">
<path d="M703 4614 c-80 -53 -73 167 -73 -2285 0 -1829 2 -2195 14 -2222 17
-40 51 -71 95 -86 44 -15 3208 -16 3261 -1 20 5 50 25 68 43 26 27 35 47 43
98 6 41 9 837 7 2209 -3 2074 -4 2146 -22 2183 -10 20 -33 47 -50 60 l-31 22
-1635 3 -1636 2 -41 -26z m3174 -215 c34 -13 80 -55 99 -91 11 -22 14 -106 14
-457 0 -280 -4 -439 -11 -458 -15 -40 -48 -73 -94 -94 -38 -18 -102 -19 -1513
-19 -1303 0 -1477 2 -1509 15 -50 21 -72 42 -94 90 -17 37 -19 74 -19 463 0
395 1 425 19 460 22 42 43 64 86 86 27 14 188 16 1512 16 1023 0 1490 -3 1510
-11z m-2757 -1251 c0 -5 5 -6 11 -2 6 3 15 0 20 -7 6 -10 9 -11 9 -1 0 15 11
15 47 0 15 -6 31 -11 36 -10 4 1 7 -2 7 -8 0 -5 3 -9 8 -9 17 3 29 -3 61 -30
18 -16 30 -34 27 -40 -4 -6 -2 -9 7 -5 8 3 20 -2 27 -11 11 -13 11 -18 0 -28
-10 -10 -12 -9 -7 5 3 10 2 20 -2 22 -5 3 -8 -5 -7 -17 1 -17 7 -21 25 -19 17
2 22 -2 17 -13 -3 -9 -2 -14 3 -11 10 7 33 -42 26 -55 -4 -5 -2 -9 3 -9 6 0 9
-13 8 -29 -1 -17 1 -28 4 -26 9 6 12 -84 4 -97 -4 -6 -8 -25 -10 -41 -1 -16
-8 -33 -15 -38 -8 -5 -11 -9 -6 -9 27 0 -85 -140 -112 -140 -11 0 -11 3 3 13
16 12 16 13 -2 13 -15 0 -19 -6 -16 -22 3 -18 -5 -26 -41 -43 -26 -12 -50 -19
-55 -16 -5 3 -11 1 -15 -5 -3 -5 -17 -10 -31 -10 -18 0 -23 4 -18 13 6 9 4 9
-7 1 -15 -12 -102 -17 -95 -6 2 4 -12 8 -30 9 -19 1 -54 13 -77 26 -44 26
-115 96 -119 119 -2 7 -9 17 -15 23 -7 5 -15 21 -17 35 -3 14 -5 25 -6 25 -5
0 -13 49 -17 108 -3 39 -1 67 5 67 5 0 9 8 9 18 0 39 4 52 14 52 5 0 7 -5 3
-12 -4 -7 -3 -8 5 -4 9 6 9 11 1 21 -9 10 -6 19 9 34 12 12 18 21 14 21 -5 1
2 9 14 19 12 10 20 21 18 23 -9 9 80 65 97 62 10 -1 21 3 25 8 4 7 1 8 -8 4
-8 -4 -5 -1 5 8 21 17 41 12 29 -7 -5 -8 -2 -8 9 0 8 7 19 9 23 5 5 -4 5 -1 1
6 -4 7 -12 9 -18 6 -7 -4 -8 -2 -4 4 12 19 74 15 79 -5 4 -15 5 -14 6 3 1 19
31 31 31 12z m790 -5 c2 -2 -1 -8 -9 -12 -10 -6 -9 -10 4 -14 10 -4 14 -3 9 4
-4 7 6 9 32 5 40 -7 43 1 4 9 -12 2 -25 7 -29 11 -9 11 49 -3 92 -21 22 -9 42
-26 47 -40 5 -14 15 -25 22 -24 10 0 10 2 1 6 -7 2 -13 9 -13 14 0 6 8 5 20
-1 11 -6 17 -16 14 -22 -4 -6 -3 -8 3 -5 6 4 18 -2 27 -12 17 -18 16 -20 -1
-30 -13 -8 -14 -11 -3 -10 33 3 45 -2 25 -11 -19 -8 -19 -9 3 -9 13 -1 20 -5
17 -11 -3 -5 -2 -10 3 -10 5 0 14 -11 20 -25 13 -29 16 -52 5 -41 -5 4 -8 12
-8 17 0 13 -19 6 -21 -8 -1 -7 1 -12 4 -11 4 1 15 -2 25 -6 14 -7 17 -20 16
-70 -1 -33 -6 -67 -13 -75 -9 -12 -8 -13 3 -7 10 7 12 3 6 -15 -4 -13 -10 -26
-14 -29 -3 -3 -7 -14 -9 -25 -6 -35 -38 -80 -56 -79 -12 2 -14 -1 -6 -11 12
-15 -23 -51 -40 -40 -6 3 -9 1 -8 -6 3 -13 -66 -57 -98 -62 -10 -1 -24 -5 -29
-9 -6 -3 -51 -5 -100 -4 -82 3 -144 19 -165 45 -3 3 -18 14 -35 23 -16 9 -31
22 -34 29 -2 7 1 9 8 5 6 -4 11 -2 11 4 0 7 -7 9 -16 6 -22 -8 -40 4 -23 15
11 7 11 9 -2 9 -9 0 -24 11 -32 24 -13 20 -14 26 -3 35 7 6 15 8 19 5 5 -5 2
21 -3 36 -1 3 -2 9 -1 13 1 4 -8 3 -19 -3 -23 -12 -24 -16 -8 -26 7 -4 8 -3 4
4 -4 7 -3 12 3 12 17 0 21 -17 7 -30 -12 -9 -17 -7 -26 10 -6 11 -8 24 -5 29
3 5 0 11 -6 13 -13 4 -14 153 -1 188 5 14 10 28 11 33 3 23 33 67 43 61 7 -4
8 -3 4 5 -10 15 13 43 27 34 5 -3 7 -1 4 4 -8 12 27 46 36 36 4 -3 7 -1 7 6 0
7 5 9 12 5 7 -4 8 -3 4 4 -8 14 44 42 79 42 14 0 25 5 25 10 0 15 40 12 41 -2
0 -10 2 -10 6 0 4 10 9 9 24 -4 11 -9 22 -14 26 -11 3 4 0 7 -8 7 -12 0 -11 2
1 11 13 9 12 10 -3 5 -11 -3 -16 -2 -12 5 6 9 42 4 55 -8z m776 7 c9 0 12 -5
8 -12 -5 -7 -3 -8 7 -2 31 19 126 -18 182 -71 29 -27 33 -40 17 -50 -5 -3 -6
-13 -3 -22 5 -12 3 -14 -7 -8 -9 5 -11 4 -6 -4 9 -14 28 -4 24 13 -3 12 3 16
23 16 5 0 8 -4 5 -8 -3 -5 4 -16 15 -26 13 -11 19 -25 16 -37 -3 -10 -2 -17 3
-14 4 3 11 -2 14 -11 4 -9 2 -13 -5 -8 -6 3 -4 -5 6 -19 12 -19 15 -40 11 -89
-6 -80 -14 -121 -27 -129 -6 -3 -10 -10 -10 -15 0 -5 -2 -17 -5 -27 -4 -14 -9
-15 -19 -7 -11 9 -12 7 -8 -11 5 -18 -5 -32 -48 -71 -29 -26 -57 -48 -61 -48
-5 0 -11 0 -14 1 -4 0 -10 -5 -15 -12 -4 -8 -11 -10 -15 -6 -4 3 -1 15 7 24
13 16 12 17 -3 4 -10 -7 -18 -19 -18 -27 0 -15 -5 -16 -125 -17 -61 -1 -98 4
-115 13 -14 8 -28 13 -32 12 -3 -1 -9 5 -12 14 -3 8 -2 13 2 10 5 -3 9 1 9 9
0 13 -2 13 -17 0 -14 -13 -19 -13 -38 1 -12 8 -20 20 -16 25 3 5 2 8 -3 7 -5
-2 -20 8 -33 21 -14 13 -18 20 -10 16 8 -5 2 4 -14 20 -27 25 -28 29 -13 40 9
7 17 16 17 21 0 4 -5 3 -12 -4 -8 -8 -15 -9 -25 -1 -17 15 -17 29 1 29 8 0 17
4 20 9 3 4 -5 6 -18 4 -14 -3 -23 0 -23 9 -1 7 -4 28 -9 47 -6 28 -5 33 7 26
11 -7 12 -6 3 6 -16 20 -14 51 5 73 9 11 10 16 4 12 -8 -4 -13 -1 -13 8 0 9 5
16 12 16 6 0 9 3 5 6 -10 10 14 64 26 57 7 -4 8 0 4 11 -4 9 -3 15 2 12 5 -3
12 1 15 10 3 8 2 12 -4 9 -21 -13 -9 2 37 44 25 24 43 38 39 30 -4 -8 0 -5 9
6 9 11 21 19 26 18 5 -2 9 1 9 6 0 5 12 13 28 19 56 21 63 22 56 9 -5 -8 -2
-7 9 2 14 11 17 11 17 0 0 -10 3 -10 8 -3 8 14 41 23 60 18 8 -2 20 -4 28 -4z
m1217 -238 c57 -36 67 -64 67 -190 0 -123 -7 -140 -78 -184 -37 -23 -40 -23
-347 -23 l-310 0 -45 25 c-65 36 -80 73 -80 191 0 114 17 150 90 187 44 22 49
23 355 20 305 -3 311 -3 348 -26z m-2779 -537 c-18 -14 -18 -15 6 -6 26 9 87
7 97 -3 3 -3 -1 -14 -10 -24 -14 -15 -15 -19 -2 -19 8 0 12 4 10 8 -3 3 3 13
12 20 14 12 16 12 11 -2 -4 -9 -1 -16 8 -16 7 0 11 5 7 10 -3 5 4 4 16 -2 11
-7 21 -14 21 -17 0 -3 -6 -2 -12 2 -8 4 -9 3 -5 -2 5 -5 16 -9 25 -9 10 0 16
-7 16 -17 -1 -10 2 -16 5 -13 14 8 52 -27 47 -42 -3 -8 -2 -12 3 -9 5 3 18 -9
29 -26 15 -24 18 -36 10 -45 -8 -10 -7 -12 4 -8 17 7 28 -20 24 -60 -2 -13 1
-22 5 -19 5 3 9 -18 9 -45 0 -29 -5 -51 -11 -51 -5 0 -7 -5 -4 -10 9 -15 -5
-71 -16 -65 -5 4 -6 -1 -3 -9 3 -9 1 -16 -6 -16 -6 0 -8 -4 -5 -10 3 -5 1 -10
-5 -10 -6 0 -9 -4 -6 -9 4 -5 -19 -35 -49 -66 -46 -47 -58 -55 -71 -44 -12 10
-13 9 -7 -7 6 -17 5 -17 -11 -5 -15 12 -19 12 -34 -2 -10 -11 -12 -17 -4 -17
7 0 12 5 12 10 0 6 6 10 13 10 6 -1 1 -9 -11 -20 -19 -16 -28 -17 -44 -9 -11
6 -22 8 -26 5 -3 -3 0 -6 7 -6 7 0 9 -4 6 -10 -10 -15 -158 -13 -152 3 2 6 1
21 -4 32 -6 17 -8 17 -8 3 -1 -10 -7 -18 -13 -18 -9 0 -8 -4 2 -10 22 -14 -3
-12 -37 2 -15 7 -31 16 -34 21 -3 5 -9 7 -12 5 -11 -6 -67 43 -61 54 4 6 3 8
-3 5 -6 -4 -21 5 -33 18 -13 14 -20 25 -16 25 5 0 3 7 -4 15 -11 13 -10 14 5
9 13 -5 16 -4 11 4 -4 7 -16 12 -27 12 -24 0 -25 15 -1 30 16 11 16 11 0 6
-20 -6 -40 24 -37 52 1 9 -1 25 -6 35 -13 30 2 138 22 154 10 8 12 12 6 8 -7
-3 -13 -3 -13 0 0 13 24 50 37 58 7 5 11 12 8 16 -8 13 23 34 37 25 8 -5 8 -1
-2 11 -14 17 -13 18 2 12 13 -4 16 -2 11 11 -3 9 -2 14 2 10 5 -5 15 1 22 12
8 11 19 18 24 15 5 -4 9 -1 9 6 0 8 5 7 17 -2 15 -12 16 -12 10 4 -6 15 3 22
26 18 4 0 7 4 7 10 0 8 5 7 16 -1 8 -8 14 -9 13 -4 -4 23 3 26 23 8 16 -14 19
-14 10 -2 -14 18 -5 22 67 26 32 1 33 1 15 -13z m781 6 c3 -6 15 -8 27 -6 12
3 27 -3 35 -13 8 -9 11 -11 7 -3 -4 9 -2 12 7 9 8 -3 13 -10 12 -15 -1 -5 4
-10 12 -10 8 0 12 5 8 10 -3 5 4 4 16 -2 11 -7 21 -14 21 -17 0 -3 -5 -2 -12
2 -7 4 -8 3 -4 -4 4 -6 13 -9 21 -6 8 3 19 -4 27 -18 7 -13 20 -23 28 -23 21
0 81 -92 73 -112 -4 -11 -2 -14 5 -9 26 16 43 -163 19 -193 -9 -12 -9 -13 1
-7 6 4 12 2 12 -3 0 -6 -4 -11 -8 -11 -4 0 -9 -12 -10 -27 -1 -16 -12 -35 -24
-44 -16 -12 -18 -17 -7 -21 10 -3 5 -14 -18 -37 -18 -17 -32 -35 -32 -39 0 -3
-4 -8 -10 -10 -18 -6 -12 26 7 37 9 6 13 10 7 10 -20 0 -40 -25 -40 -49 0 -19
-5 -25 -22 -24 -16 1 -20 -3 -15 -15 5 -14 4 -14 -12 -2 -13 11 -19 12 -29 2
-9 -10 -8 -11 6 -6 9 4 17 3 17 -3 0 -18 -60 -33 -82 -21 -11 6 -22 8 -26 5
-3 -3 0 -6 6 -6 7 0 12 -4 12 -9 0 -11 -138 -12 -145 -1 -3 5 -13 6 -22 3 -12
-5 -14 -3 -8 7 5 9 4 11 -4 6 -18 -12 -74 14 -62 28 7 8 4 12 -9 12 -10 0 -16
-5 -12 -11 3 -5 -2 -4 -10 3 -9 8 -14 21 -11 30 4 15 3 15 -6 2 -10 -13 -15
-11 -36 13 -14 16 -22 33 -19 39 4 7 2 8 -4 4 -16 -10 -60 82 -70 147 -9 60
-5 117 9 117 5 0 9 5 9 11 0 5 -4 7 -10 4 -14 -9 -13 8 2 23 7 7 9 12 5 12 -4
0 0 16 8 37 21 50 106 148 115 133 5 -8 9 -4 13 10 3 12 10 19 16 15 6 -3 11
-2 11 2 0 13 68 35 81 27 8 -5 9 -3 4 6 -6 10 0 12 24 8 17 -2 31 -1 31 4 0
11 57 10 65 -1z m812 -1 c12 0 25 -5 28 -10 4 -6 11 -7 17 -4 6 4 9 1 6 -7 -3
-8 -14 -13 -24 -12 -10 1 -13 0 -6 -3 6 -3 9 -11 5 -17 -3 -7 5 -2 19 11 23
21 27 21 41 8 8 -8 18 -12 22 -8 5 4 5 -2 1 -12 -6 -17 -5 -17 11 -5 15 12 16
12 10 -4 -4 -10 -3 -16 2 -12 5 3 12 1 16 -5 4 -6 10 -8 15 -5 9 5 60 -58 60
-74 0 -6 -5 -11 -11 -11 -5 0 -7 -5 -3 -11 4 -8 9 -7 16 2 7 11 11 11 15 2 2
-7 4 -15 3 -19 -1 -4 4 -10 11 -14 7 -5 13 -26 13 -48 1 -22 4 -44 9 -48 10
-10 9 -106 -2 -100 -4 3 -7 -6 -5 -19 1 -14 -2 -25 -7 -25 -6 0 -7 -4 -4 -10
7 -12 -32 -90 -45 -90 -6 0 -9 -4 -8 -9 5 -18 -105 -109 -124 -103 -5 1 -8 -3
-8 -9 0 -8 -4 -8 -14 0 -11 9 -16 9 -22 0 -5 -8 -3 -9 6 -4 9 6 11 4 5 -4 -4
-7 -16 -11 -26 -8 -11 3 -19 1 -19 -4 0 -6 -33 -9 -75 -8 -54 1 -75 5 -75 15
0 7 -5 16 -12 20 -6 4 -8 3 -4 -4 3 -6 2 -13 -4 -17 -12 -8 -52 13 -46 24 3 5
-4 8 -17 7 -12 0 -21 4 -20 9 1 6 -7 12 -19 12 -11 1 -31 14 -44 28 -25 28
-33 45 -11 27 8 -7 18 -7 27 -2 9 6 18 5 23 -3 6 -9 7 -8 5 3 -3 8 -15 14 -29
14 -13 0 -27 5 -31 10 -5 7 -8 7 -8 -1 0 -29 -20 -9 -49 49 -33 64 -40 104
-18 93 6 -4 4 0 -5 8 -20 16 -26 117 -7 117 5 0 7 5 4 10 -4 6 -3 19 1 28 9
20 11 28 13 43 1 8 7 7 18 -2 15 -13 15 -12 5 8 -9 16 -9 24 0 29 7 5 8 3 3
-6 -6 -9 -4 -11 4 -6 7 5 10 15 6 24 -6 16 33 65 46 57 4 -3 10 3 14 14 3 11
17 27 32 36 14 9 22 12 19 6 -5 -7 -1 -9 8 -5 9 3 13 11 9 18 -3 6 -3 8 2 4 4
-4 15 -2 23 4 14 12 25 15 70 22 12 2 25 6 28 9 3 3 24 3 47 1 23 -2 52 -4 64
-4z m1171 -19 c71 -36 77 -50 80 -180 3 -138 -9 -170 -83 -202 -42 -19 -64
-20 -359 -17 -300 3 -316 4 -342 24 -59 43 -69 68 -72 173 -5 128 13 169 93
206 24 11 95 14 338 15 283 0 311 -2 345 -19z m8 -589 c64 -37 74 -63 74 -187
0 -136 -15 -165 -105 -200 -35 -14 -86 -16 -340 -13 -279 3 -302 4 -334 23
-60 36 -76 66 -80 161 -4 107 3 146 35 184 46 54 85 59 414 57 289 -2 296 -2
336 -25z m-1903 -167 c12 -5 16 -15 13 -32 -5 -24 -4 -24 18 -9 21 13 26 13
45 0 12 -9 19 -19 16 -24 -3 -5 0 -12 6 -16 8 -4 9 -3 5 4 -12 20 10 13 29 -8
10 -11 15 -23 11 -27 -4 -4 4 -13 16 -21 13 -7 15 -11 6 -8 -22 6 -34 -12 -19
-27 9 -9 11 -8 6 5 -5 13 -2 15 15 11 11 -3 19 -8 16 -10 -3 -3 2 -12 10 -20
8 -8 12 -19 9 -24 -4 -5 -1 -9 4 -9 6 0 11 -5 11 -11 0 -5 -6 -7 -12 -3 -7 4
-5 -2 5 -13 33 -37 19 -184 -25 -267 -16 -29 -34 -46 -42 -38 -4 3 -4 -1 -1
-9 3 -9 -3 -23 -15 -34 -15 -14 -20 -15 -21 -4 0 8 -4 5 -9 -7 -10 -25 -86
-68 -102 -58 -7 4 -8 2 -4 -4 9 -15 -6 -16 -21 -1 -7 7 -15 5 -27 -6 -14 -14
-19 -15 -33 -3 -10 8 -14 8 -10 1 11 -18 -133 -9 -144 9 -5 7 -9 10 -9 6 0 -8
-80 31 -80 39 0 2 6 1 13 -3 7 -4 8 -3 4 2 -5 5 -16 9 -25 9 -9 0 -16 5 -15
12 2 6 -6 14 -16 18 -11 3 -27 18 -36 32 -14 21 -14 25 -3 21 8 -4 15 0 15 7
0 7 -8 10 -18 8 -9 -3 -20 1 -24 8 -5 7 -4 10 3 5 12 -7 10 20 -3 31 -4 4 -5
2 -1 -4 4 -7 3 -13 -2 -13 -16 0 -34 81 -34 151 0 74 26 167 48 176 8 3 11 9
8 14 -7 12 91 109 110 109 8 0 17 -6 20 -12 3 -7 3 -3 1 8 -5 18 1 24 26 33
22 8 36 8 45 1 9 -8 14 -7 20 1 4 8 3 9 -4 5 -7 -4 -12 -2 -12 4 0 7 21 9 61
5 33 -3 58 -1 55 4 -6 8 64 -2 97 -14z m-919 3 c-6 -10 -4 -10 7 -2 8 6 23 11
34 11 11 0 26 -5 34 -11 11 -8 13 -8 7 2 -8 13 6 15 41 6 13 -4 21 -10 18 -14
-3 -5 3 -6 13 -3 10 2 24 -3 31 -11 10 -12 10 -16 2 -16 -7 0 -9 -4 -6 -10 7
-12 26 -14 22 -2 -1 4 3 7 8 7 6 0 9 -4 7 -9 -2 -5 4 -6 11 -3 9 3 31 -11 53
-35 22 -23 32 -38 24 -34 -8 4 -4 -2 9 -13 13 -12 20 -21 16 -21 -3 0 1 -7 9
-16 9 -8 14 -20 11 -25 -4 -5 -1 -9 6 -9 7 0 4 -6 -7 -14 -16 -12 -17 -17 -6
-28 11 -11 12 -10 6 6 -5 13 -3 17 7 14 19 -6 28 -61 24 -136 -4 -73 -48 -177
-71 -168 -7 3 -16 1 -19 -5 -4 -5 -3 -9 2 -8 23 4 24 -3 3 -26 -12 -13 -27
-22 -33 -18 -6 3 -7 1 -4 -4 9 -14 -19 -37 -33 -28 -6 4 -9 3 -8 -2 2 -4 -1
-8 -7 -8 -5 0 -9 3 -7 8 3 11 -16 9 -23 -3 -3 -5 -1 -10 4 -10 6 0 11 -5 11
-11 0 -6 -7 -8 -16 -5 -10 4 -13 2 -8 -6 5 -8 2 -9 -9 -5 -10 3 -17 3 -17 -2
0 -5 -11 -11 -25 -13 -16 -4 -22 -1 -18 6 4 6 -1 5 -11 -3 -15 -13 -19 -13
-27 0 -5 9 -9 10 -9 2 0 -17 -97 -14 -132 4 -15 7 -30 13 -33 13 -21 -1 -25 1
-20 10 3 6 -1 7 -9 4 -9 -3 -16 -1 -16 5 0 6 -6 11 -13 11 -16 0 -69 54 -62
63 3 4 2 5 -2 2 -9 -7 -34 16 -27 26 3 5 1 9 -5 9 -6 0 -15 10 -22 21 -9 17
-8 20 2 14 14 -9 5 10 -19 37 -12 14 -12 21 -2 33 7 8 17 12 22 9 6 -4 5 3 -1
15 -13 24 -23 29 -15 7 3 -8 1 -17 -5 -20 -5 -4 -12 2 -15 12 -9 28 1 161 13
176 6 7 7 17 3 21 -4 5 2 5 12 1 15 -5 17 -4 8 7 -9 10 -6 22 14 48 14 19 30
33 35 31 6 -1 8 2 5 7 -9 14 22 34 41 26 28 -13 44 -14 37 -4 -3 5 -9 7 -14 4
-4 -3 -13 2 -19 9 -10 11 -7 18 11 30 13 10 24 12 26 6 2 -5 8 -10 13 -10 4 0
6 7 3 15 -6 13 6 20 29 16 4 0 7 4 7 10 0 7 12 10 29 7 17 -2 28 -1 25 4 -3 4
7 8 21 8 18 0 24 -4 19 -12z m1702 -9 c40 -15 54 -25 50 -35 -4 -10 -2 -12 6
-8 8 5 9 2 4 -11 -5 -15 -4 -16 9 -5 13 11 18 11 28 0 10 -10 9 -11 -3 -5 -8
4 -6 -1 5 -12 11 -11 23 -19 27 -17 13 8 62 -68 63 -98 1 -16 6 -33 12 -36 14
-9 27 -66 13 -57 -5 3 -10 1 -10 -4 0 -6 5 -11 10 -11 6 0 10 -5 10 -11 0 -5
-6 -7 -12 -3 -10 6 -10 5 -1 -8 16 -18 11 -71 -8 -95 -9 -11 -10 -14 -2 -9 9
5 11 2 6 -11 -3 -10 -10 -22 -14 -28 -4 -5 -8 -13 -8 -18 -3 -38 -102 -143
-126 -133 -9 3 -12 0 -9 -8 4 -9 -10 -20 -40 -31 -39 -15 -48 -16 -63 -4 -16
13 -17 12 -4 -3 12 -17 7 -18 -81 -15 -74 2 -104 8 -142 27 -74 35 -154 113
-160 154 -1 8 -8 21 -15 30 -7 8 -10 20 -6 26 3 5 2 10 -4 10 -5 0 -10 8 -10
18 0 9 -2 31 -5 49 -3 18 -1 35 5 38 6 4 6 11 1 18 -12 15 -3 77 10 77 5 0 6
5 3 10 -4 6 -1 18 6 26 7 9 14 22 15 30 3 17 36 63 63 88 22 20 22 20 16 0 -3
-10 0 -7 7 7 7 14 19 24 26 22 6 -3 10 -8 8 -12 -3 -4 1 -8 9 -8 13 0 13 3 -1
18 -15 16 -14 19 15 33 17 9 42 14 56 12 13 -3 24 -2 24 2 -3 18 6 20 81 21
58 0 96 -5 136 -20z m-746 -19 c0 -5 -5 -10 -11 -10 -5 0 -7 5 -4 10 3 6 8 10
11 10 2 0 4 -4 4 -10z m1845 -370 c86 -41 95 -60 95 -195 0 -129 -11 -154 -86
-191 l-51 -25 -299 3 c-276 3 -302 5 -338 23 -66 33 -80 63 -85 167 -4 104 8
154 43 187 49 46 82 50 391 50 266 1 293 -1 330 -19z m-2657 -364 c11 -6 11
-24 0 -41 -4 -6 2 -11 12 -11 15 0 16 4 9 18 -8 14 -6 18 10 18 11 0 23 -5 27
-12 5 -7 3 -8 -6 -3 -8 5 -11 4 -6 -3 4 -6 13 -9 20 -6 22 8 111 -87 141 -149
29 -61 43 -167 22 -167 -8 0 -8 -3 2 -9 10 -6 10 -13 2 -28 -5 -11 -8 -22 -6
-25 8 -7 -16 -68 -26 -68 -5 0 -9 -8 -9 -17 0 -15 -2 -16 -9 -3 -6 8 -8 17 -5
21 2 4 -4 13 -14 20 -15 13 -16 12 -3 -3 11 -15 11 -18 0 -18 -9 0 -10 -3 -3
-8 27 -19 23 -43 -16 -84 -22 -22 -40 -37 -40 -32 0 5 -5 1 -11 -9 -12 -21
-66 -50 -79 -42 -6 3 -10 2 -10 -3 0 -17 -51 -24 -68 -10 -13 11 -14 11 -7 -1
6 -11 4 -13 -10 -7 -11 4 -22 2 -27 -6 -5 -8 -11 -9 -15 -3 -5 6 -19 10 -33
10 -14 0 -31 4 -37 9 -14 9 -7 29 8 20 5 -3 6 -10 3 -16 -4 -7 -2 -8 5 -4 9 6
9 11 1 21 -7 8 -9 20 -5 27 4 7 -2 2 -13 -12 -11 -13 -18 -28 -16 -32 3 -4 -2
-8 -11 -8 -9 0 -13 5 -10 11 4 6 1 10 -6 8 -28 -3 -40 1 -33 13 5 8 2 9 -9 5
-10 -3 -17 -2 -17 3 0 6 -7 10 -15 10 -9 0 -18 7 -21 15 -4 8 -11 15 -16 15
-11 0 -53 50 -53 63 0 4 -5 11 -11 15 -17 11 -36 51 -29 62 3 6 2 10 -4 10 -6
0 -9 15 -7 34 1 19 -1 33 -6 30 -16 -10 -8 101 9 125 9 14 12 21 6 18 -7 -5
-9 0 -6 13 4 15 11 19 27 15 18 -5 19 -5 4 5 -24 15 -23 30 1 30 11 0 23 5 27
12 5 8 2 9 -11 4 -15 -5 -16 -4 -5 9 7 8 9 15 4 15 -4 0 5 13 21 30 15 16 33
27 38 23 6 -3 7 -1 4 4 -10 17 19 35 45 29 13 -3 17 -3 11 0 -7 3 -13 10 -13
15 0 6 4 8 9 5 5 -4 11 -1 13 4 2 6 10 12 18 13 8 2 21 6 29 11 8 5 16 4 21
-4 5 -8 9 -7 13 4 6 14 21 16 96 12 49 -2 94 -6 99 -10z m651 -1 c10 -5 12 -4
7 3 -12 19 12 14 24 -5 11 -17 11 -17 6 0 -6 20 4 22 23 5 11 -10 13 -10 7 0
-8 13 6 17 18 5 4 -5 13 -8 19 -8 7 -1 11 -7 9 -15 -3 -12 -1 -12 9 -3 14 14
44 2 67 -26 10 -12 12 -13 6 -1 -10 20 50 -31 81 -68 13 -16 22 -32 18 -36 -3
-3 0 -6 8 -6 11 0 11 -2 -1 -10 -13 -8 -13 -10 2 -10 25 0 47 -82 46 -167 0
-46 -4 -70 -11 -66 -6 4 -7 1 -3 -6 12 -19 -3 -64 -19 -57 -9 3 -12 -1 -10
-16 6 -29 -13 -61 -32 -54 -13 5 -13 4 -4 -8 9 -11 4 -21 -30 -49 -22 -20 -47
-33 -54 -31 -7 3 -16 0 -21 -7 -5 -8 -3 -10 7 -4 11 6 11 5 3 -4 -6 -7 -18
-13 -25 -14 -8 -2 -20 -6 -27 -11 -7 -4 -30 -9 -51 -11 -21 -2 -48 -6 -60 -10
-17 -5 -20 -3 -14 11 5 14 3 15 -16 4 -18 -9 -26 -9 -39 2 -11 9 -14 10 -8 0
4 -8 1 -12 -9 -12 -11 0 -15 5 -11 16 3 8 2 13 -2 10 -5 -3 -21 2 -37 10 -24
13 -26 12 -15 -1 13 -16 3 -20 -18 -7 -7 5 -10 17 -6 28 4 14 3 15 -4 5 -8
-10 -14 -11 -33 -1 -44 23 -60 42 -48 57 14 16 36 17 42 1 4 -10 6 -10 6 0 1
18 -28 27 -42 13 -6 -6 -18 -11 -27 -11 -13 0 -13 1 0 10 13 9 13 10 0 10 -9
0 -21 5 -28 12 -9 9 -7 14 6 24 15 12 15 13 -4 8 -17 -5 -24 1 -33 26 -6 18
-8 36 -5 41 3 5 1 9 -4 9 -10 0 -11 10 -12 105 -1 38 3 71 9 73 5 2 7 10 4 19
-5 12 -3 14 7 8 8 -5 11 -3 8 6 -13 35 79 151 146 186 26 14 28 14 23 -2 -4
-9 -3 -14 3 -10 6 3 10 13 10 22 0 9 3 13 8 9 4 -4 7 -13 7 -18 0 -6 7 -13 15
-15 9 -3 11 -1 5 4 -20 16 -16 41 7 46 32 6 81 2 97 -8z m765 4 c-3 -5 0 -9 5
-9 6 0 11 4 11 9 0 13 43 10 52 -4 5 -7 8 -6 8 2 0 25 105 -17 154 -62 27 -25
28 -27 7 -20 -16 5 -21 4 -17 -4 4 -6 18 -11 32 -11 26 0 31 -9 14 -26 -7 -7
-6 -11 4 -11 8 0 13 4 10 9 -3 4 -1 8 4 8 4 0 19 -19 32 -42 12 -22 18 -38 12
-34 -6 3 -14 2 -17 -4 -4 -6 -3 -10 2 -9 23 4 35 -2 29 -16 -3 -8 -1 -15 3
-15 5 0 8 -11 7 -25 -2 -13 1 -22 5 -19 5 3 9 -17 9 -45 0 -27 -4 -52 -9 -55
-4 -3 -7 -18 -5 -33 3 -34 -13 -66 -29 -56 -9 5 -9 4 0 -8 13 -16 0 -49 -14
-36 -4 5 -2 12 6 16 10 7 10 9 -2 14 -11 4 -14 -3 -13 -30 1 -24 -4 -38 -14
-41 -13 -5 -13 -3 0 14 14 18 14 18 -6 1 -11 -9 -24 -14 -29 -10 -4 5 -5 2 -1
-5 4 -7 12 -10 17 -7 5 4 9 3 9 -2 0 -12 -72 -73 -110 -93 -39 -20 -134 -35
-125 -19 4 5 1 9 -4 9 -6 0 -11 -7 -11 -16 0 -13 -6 -15 -27 -9 -16 5 -39 9
-53 10 -14 1 -26 4 -27 5 -2 1 -6 3 -10 4 -50 11 -64 18 -59 31 7 18 -10 29
-20 14 -5 -8 -3 -9 6 -4 9 6 11 4 5 -5 -6 -10 -11 -9 -22 5 -7 11 -13 15 -13
11 0 -11 -73 63 -94 95 -15 25 -16 28 -1 43 9 9 12 16 6 16 -5 0 -13 -5 -17
-11 -9 -15 -23 10 -30 53 -12 68 -15 150 -6 144 5 -3 8 5 7 17 -2 29 14 77 27
77 6 0 8 -6 5 -14 -7 -18 19 -15 36 4 10 12 9 12 -3 3 -13 -10 -18 -8 -28 8
-8 12 -9 19 -1 19 5 0 7 5 4 10 -3 6 -1 10 4 10 6 0 11 7 11 16 0 10 6 14 15
11 8 -4 17 -2 20 3 4 6 14 6 28 -1 21 -10 21 -9 3 5 -16 13 -22 13 -35 3 -8
-6 -2 5 13 25 16 21 32 35 37 32 5 -3 9 0 9 7 0 7 3 9 7 6 3 -4 11 0 17 9 6 8
18 16 26 18 8 2 22 6 30 9 35 14 112 18 104 6z m1258 -213 c64 -31 78 -66 78
-193 0 -124 -7 -141 -78 -185 -37 -23 -40 -23 -347 -23 -294 0 -312 1 -349 21
-71 37 -81 60 -81 189 0 131 10 154 86 193 43 22 48 23 349 20 274 -3 309 -5
342 -22z"/>
<path d="M946 3082 c-2 -4 -1 -14 4 -22 7 -11 9 -9 7 8 -1 24 -3 26 -11 14z"/>
<path d="M1153 3073 c0 -7 5 -10 10 -6 5 3 7 -3 4 -13 -3 -11 -8 -34 -12 -52
-4 -18 -11 -29 -17 -26 -6 4 -8 -1 -3 -15 4 -14 2 -21 -7 -21 -10 0 -10 -2 1
-9 11 -7 12 -13 4 -23 -6 -7 -9 -21 -8 -30 2 -10 -1 -18 -5 -18 -5 0 -7 -11
-4 -25 2 -14 1 -25 -4 -25 -5 0 -8 -10 -7 -22 3 -32 -5 -49 -19 -41 -7 4 -6 1
2 -9 7 -8 9 -23 6 -33 -5 -13 -13 0 -30 46 -28 76 -28 75 -9 59 12 -10 18 -11
28 -1 19 19 16 57 -5 57 -16 0 -16 -2 -1 -18 24 -26 3 -46 -26 -26 -12 8 -19
17 -16 20 3 3 -1 11 -10 18 -13 11 -23 10 -56 -5 -22 -10 -46 -18 -53 -18 -11
0 -12 -5 -3 -24 8 -18 17 -23 33 -20 14 2 25 -2 28 -10 9 -22 7 -25 -6 -18 -7
4 -6 1 3 -7 9 -7 14 -19 11 -27 -2 -8 0 -11 5 -8 9 6 28 -45 24 -65 0 -5 4 -8
10 -8 5 0 8 -4 5 -9 -4 -5 -1 -11 5 -13 6 -2 12 -15 12 -30 1 -14 8 -31 16
-39 13 -11 14 -11 9 3 -5 13 0 16 27 14 19 -1 32 0 30 2 -1 2 1 20 6 40 5 20
12 52 15 71 2 19 9 40 14 46 6 7 8 14 5 17 -8 8 16 109 24 103 5 -2 7 7 5 21
-4 37 7 95 17 89 4 -3 7 7 6 22 -1 20 2 27 12 25 12 -3 12 0 2 12 -7 8 -10 24
-6 34 5 17 0 20 -33 24 -26 2 -39 -1 -39 -9z"/>
<path d="M1242 3067 c-8 -9 -8 -17 0 -27 8 -13 9 -12 5 1 -3 9 0 22 6 28 6 6
8 11 5 11 -3 0 -10 -6 -16 -13z"/>
<path d="M1290 3076 c0 -2 7 -9 15 -16 13 -11 14 -10 9 4 -5 14 -24 23 -24 12z"/>
<path d="M865 3050 c-3 -6 1 -7 9 -4 18 7 21 14 7 14 -6 0 -13 -4 -16 -10z"/>
<path d="M839 2993 c-13 -16 -12 -17 4 -4 9 7 17 15 17 17 0 8 -8 3 -21 -13z"/>
<path d="M1226 2987 c3 -10 9 -15 12 -12 3 3 0 11 -7 18 -10 9 -11 8 -5 -6z"/>
<path d="M856 2958 c3 -5 10 -6 15 -3 13 9 11 12 -6 12 -8 0 -12 -4 -9 -9z"/>
<path d="M1377 2949 c4 -13 8 -18 11 -10 2 7 -1 18 -6 23 -8 8 -9 4 -5 -13z"/>
<path d="M886 2853 c-6 -14 -5 -15 5 -6 7 7 10 15 7 18 -3 3 -9 -2 -12 -12z"/>
<path d="M893 2805 c0 -8 4 -12 9 -9 5 3 6 10 3 15 -9 13 -12 11 -12 -6z"/>
<path d="M775 2750 c3 -5 8 -10 11 -10 2 0 4 5 4 10 0 6 -5 10 -11 10 -5 0 -7
-4 -4 -10z"/>
<path d="M985 2671 c-3 -5 -2 -12 3 -15 5 -3 9 1 9 9 0 17 -3 19 -12 6z"/>
<path d="M1259 2503 c-13 -16 -12 -17 4 -4 9 7 17 15 17 17 0 8 -8 3 -21 -13z"/>
<path d="M2034 3089 c-3 -6 2 -18 12 -27 17 -16 17 -16 5 0 -7 9 -10 22 -6 28
3 5 4 10 1 10 -3 0 -8 -5 -12 -11z"/>
<path d="M1643 3045 c0 -8 4 -12 9 -9 5 3 6 10 3 15 -9 13 -12 11 -12 -6z"/>
<path d="M1818 2978 l-3 -53 -67 0 c-54 0 -64 -2 -55 -13 8 -10 7 -16 -4 -23
-9 -6 -10 -9 -2 -9 7 0 10 -6 7 -14 -8 -21 14 -30 74 -27 l54 3 -2 -49 c-1
-26 -1 -53 -1 -58 1 -15 76 -13 90 2 7 8 8 13 1 13 -5 0 -10 21 -10 46 l0 45
56 -2 c60 -3 76 8 66 44 -3 12 1 25 10 31 14 10 14 13 0 26 -14 13 -15 12 -9
-3 6 -16 0 -18 -56 -15 l-62 3 -3 53 -3 52 -39 0 -39 0 -3 -52z"/>
<path d="M1565 2971 c-3 -5 -2 -12 3 -15 5 -3 9 1 9 9 0 17 -3 19 -12 6z"/>
<path d="M1785 2730 c-3 -5 -1 -10 4 -10 6 0 11 5 11 10 0 6 -2 10 -4 10 -3 0
-8 -4 -11 -10z"/>
<path d="M2000 2736 c0 -2 7 -7 16 -10 8 -3 12 -2 9 4 -6 10 -25 14 -25 6z"/>
<path d="M1699 2705 c-3 -2 -3 -20 -1 -40 l4 -35 159 0 159 0 0 40 0 40 -158
0 c-87 0 -161 -2 -163 -5z"/>
<path d="M2119 2622 c9 -7 10 -11 2 -15 -7 -4 -8 -5 0 -3 15 2 13 20 -3 24
-10 3 -10 2 1 -6z"/>
<path d="M1588 2603 c6 -2 18 -2 25 0 6 3 1 5 -13 5 -14 0 -19 -2 -12 -5z"/>
<path d="M1735 2530 c-3 -5 -1 -10 4 -10 6 0 11 5 11 10 0 6 -2 10 -4 10 -3 0
-8 -4 -11 -10z"/>
<path d="M2039 2522 c-13 -15 -12 -16 3 -4 13 10 17 10 21 0 4 -9 6 -9 6 -1 2
20 -16 24 -30 5z"/>
<path d="M1701 2518 c-1 -21 15 -32 25 -17 4 7 3 9 -4 5 -6 -3 -13 2 -15 11
-4 16 -5 16 -6 1z"/>
<path d="M2843 3075 c0 -8 4 -15 9 -15 4 0 8 4 8 9 0 6 -4 12 -8 15 -5 3 -9
-1 -9 -9z"/>
<path d="M2866 3052 c-3 -5 1 -9 9 -9 8 0 12 4 9 9 -3 4 -7 8 -9 8 -2 0 -6 -4
-9 -8z"/>
<path d="M2815 3040 c-3 -6 1 -7 9 -4 18 7 21 14 7 14 -6 0 -13 -4 -16 -10z"/>
<path d="M2460 3031 c0 -6 4 -13 10 -16 6 -3 7 1 4 9 -7 18 -14 21 -14 7z"/>
<path d="M2415 3014 c8 -9 13 -19 10 -24 -3 -5 -1 -11 5 -15 6 -4 8 -11 4 -16
-3 -6 -12 -5 -22 3 -13 11 -14 11 -7 -2 5 -8 10 -21 11 -30 7 -73 7 -95 -2
-93 -5 1 -10 -9 -10 -21 0 -12 6 -23 13 -23 9 0 10 4 3 12 -10 12 -4 25 12 25
5 0 6 -4 3 -10 -6 -10 7 -14 33 -11 8 1 20 -3 28 -10 10 -8 18 -9 27 0 8 6 16
9 19 6 9 -10 58 44 58 65 0 11 6 20 13 20 8 0 7 4 -3 11 -11 8 -12 12 -3 15 8
4 2 15 -17 34 -16 15 -27 30 -25 32 3 2 -14 5 -37 7 -23 1 -51 7 -62 13 -18
10 -19 9 -9 -4 7 -8 10 -18 6 -21 -8 -9 -36 30 -29 41 2 4 -4 9 -15 9 -17 2
-18 0 -4 -13z m83 -102 c-7 -10 -8 -14 -4 -10 5 4 16 2 24 -5 13 -10 14 -9 7
3 -14 22 -15 42 -2 37 6 -2 12 -20 13 -41 2 -30 0 -35 -11 -26 -10 8 -16 7
-23 -6 -9 -16 -10 -15 -17 5 -9 28 2 74 16 66 6 -5 6 -13 -3 -23z"/>
<path d="M2606 3022 c-3 -5 1 -9 9 -9 8 0 12 4 9 9 -3 4 -7 8 -9 8 -2 0 -6 -4
-9 -8z"/>
<path d="M2731 3014 c0 -11 3 -14 6 -6 3 7 2 16 -1 19 -3 4 -6 -2 -5 -13z"/>
<path d="M2756 3008 c3 -5 10 -6 15 -3 13 9 11 12 -6 12 -8 0 -12 -4 -9 -9z"/>
<path d="M2385 2999 c-4 -6 -5 -12 -2 -15 2 -3 7 2 10 11 7 17 1 20 -8 4z"/>
<path d="M2508 3003 c7 -3 16 -2 19 1 4 3 -2 6 -13 5 -11 0 -14 -3 -6 -6z"/>
<path d="M2696 2973 c4 -33 3 -35 -19 -31 -14 3 -24 0 -24 -7 0 -7 9 -10 21
-8 12 3 17 1 11 -4 -6 -4 -19 -25 -30 -46 -11 -20 -25 -35 -32 -33 -8 3 -10
-1 -6 -11 4 -11 2 -14 -5 -9 -8 4 -10 2 -6 -7 8 -22 -86 -169 -104 -162 -12 5
-13 3 -2 -10 16 -20 93 -18 86 2 -3 7 -1 13 4 13 6 0 9 3 8 8 -3 15 26 62 39
62 8 0 12 -4 8 -9 -3 -6 4 -8 16 -6 15 3 19 0 15 -10 -3 -8 -1 -15 3 -15 5 0
8 -11 7 -25 -2 -13 0 -24 3 -23 25 3 41 -5 42 -19 0 -11 3 -13 6 -5 3 7 24 12
52 12 41 0 50 4 61 25 7 14 16 25 19 25 9 0 6 63 -3 78 -4 7 -2 21 5 30 10 13
10 14 0 6 -9 -8 -21 -7 -47 7 -28 14 -41 15 -67 7 -18 -6 -40 -11 -49 -11 -9
-1 -14 -5 -12 -9 3 -4 -3 -22 -11 -39 -15 -28 -19 -30 -31 -17 -13 13 -13 19
6 51 12 21 26 34 31 31 5 -3 6 2 3 10 -3 9 -1 16 5 16 6 0 10 4 9 9 -2 5 2 9
7 9 6 0 8 -5 7 -11 -9 -29 -11 -49 -4 -43 4 4 7 13 7 19 1 7 7 11 14 9 10 -2
9 4 -4 24 -18 27 -18 28 11 52 16 13 22 21 14 16 -12 -6 -13 -5 -3 8 7 8 10
18 6 21 -3 4 -2 7 4 7 6 0 13 7 17 15 6 16 -15 16 -64 0 -11 -4 -20 -2 -20 3
0 6 5 12 12 14 8 3 6 7 -4 11 -14 5 -16 0 -12 -30z m102 -251 c3 -43 -6 -56
-32 -46 -31 12 -13 101 19 91 5 -2 11 -22 13 -45z"/>
<path d="M2585 2991 c-3 -5 0 -13 6 -17 7 -4 9 -3 5 4 -3 6 3 12 16 15 23 4
23 4 1 6 -12 0 -24 -3 -28 -8z"/>
<path d="M2616 2968 c3 -5 10 -6 15 -3 13 9 11 12 -6 12 -8 0 -12 -4 -9 -9z"/>
<path d="M2920 2970 c-8 -5 -10 -10 -5 -11 6 0 18 -2 28 -4 15 -3 16 -1 6 11
-14 16 -10 16 -29 4z"/>
<path d="M2761 2896 c-9 -11 -9 -16 1 -22 7 -4 10 -4 6 1 -4 4 -3 14 3 22 6 7
9 13 6 13 -2 0 -10 -6 -16 -14z"/>
<path d="M2800 2836 c0 -2 8 -10 18 -17 15 -13 16 -12 3 4 -13 16 -21 21 -21
13z"/>
<path d="M2837 2829 c7 -7 15 -10 18 -7 3 3 -2 9 -12 12 -14 6 -15 5 -6 -5z"/>
<path d="M2586 2805 c7 -18 6 -19 -12 -5 -12 9 -15 9 -7 1 6 -7 9 -21 6 -30
-3 -9 2 -5 12 7 13 18 15 26 6 35 -9 9 -10 7 -5 -8z"/>
<path d="M2660 2749 c0 -5 5 -7 10 -4 6 3 10 8 10 11 0 2 -4 4 -10 4 -5 0 -10
-5 -10 -11z"/>
<path d="M2976 2743 c-6 -14 -5 -15 5 -6 7 7 10 15 7 18 -3 3 -9 -2 -12 -12z"/>
<path d="M2625 2691 c-3 -5 -2 -12 3 -15 5 -3 9 1 9 9 0 17 -3 19 -12 6z"/>
<path d="M2655 2651 c-3 -5 -2 -12 3 -15 5 -3 9 1 9 9 0 17 -3 19 -12 6z"/>
<path d="M2855 2651 c-3 -5 0 -13 6 -17 7 -4 9 -3 5 4 -3 5 0 13 6 15 9 4 10
6 1 6 -6 1 -14 -3 -18 -8z"/>
<path d="M2730 2529 c0 -5 5 -7 10 -4 6 3 10 8 10 11 0 2 -4 4 -10 4 -5 0 -10
-5 -10 -11z"/>
<path d="M2814 2528 c-5 -7 -2 -8 6 -3 10 6 12 4 6 -10 -5 -15 -4 -16 9 -5 19
15 19 16 0 23 -8 4 -17 1 -21 -5z"/>
<path d="M3497 2893 c-4 -3 -7 -24 -7 -45 0 -32 3 -38 23 -40 64 -4 62 -6 65
45 l3 47 -39 0 c-21 0 -42 -3 -45 -7z"/>
<path d="M3448 2792 l-68 -3 0 -45 0 -45 158 3 157 3 3 43 3 42 -68 1 c-37 0
-79 1 -93 2 -14 1 -55 1 -92 -1z"/>
<path d="M3497 2683 c-4 -3 -7 -24 -7 -45 l0 -38 45 0 45 0 0 45 0 45 -38 0
c-21 0 -42 -3 -45 -7z"/>
<path d="M980 2340 c0 -5 5 -10 11 -10 5 0 7 5 4 10 -3 6 -8 10 -11 10 -2 0
-4 -4 -4 -10z"/>
<path d="M1369 2193 c-13 -16 -12 -17 4 -4 9 7 17 15 17 17 0 8 -8 3 -21 -13z"/>
<path d="M1385 2181 c-3 -5 0 -13 6 -17 7 -4 9 -3 5 4 -3 5 0 13 6 15 9 4 10
6 1 6 -6 1 -14 -3 -18 -8z"/>
<path d="M770 2121 c0 -6 4 -13 10 -16 6 -3 7 1 4 9 -7 18 -14 21 -14 7z"/>
<path d="M1363 1885 c0 -8 4 -12 9 -9 5 3 6 10 3 15 -9 13 -12 11 -12 -6z"/>
<path d="M1379 1863 c-13 -16 -12 -17 4 -4 9 7 17 15 17 17 0 8 -8 3 -21 -13z"/>
<path d="M1313 1795 c0 -8 4 -12 9 -9 5 3 6 10 3 15 -9 13 -12 11 -12 -6z"/>
<path d="M984 1730 c0 -13 4 -16 10 -10 7 7 7 13 0 20 -6 6 -10 3 -10 -10z"/>
<path d="M1740 2316 c7 -7 13 -7 20 0 6 6 3 10 -10 10 -13 0 -16 -4 -10 -10z"/>
<path d="M1616 2271 c-8 -13 21 -34 39 -27 8 3 15 11 15 18 0 10 -3 9 -9 -1
-5 -8 -16 -11 -26 -8 -9 4 -13 11 -10 17 3 5 4 10 1 10 -3 0 -7 -4 -10 -9z"/>
<path d="M2110 2276 c0 -2 8 -10 18 -17 15 -13 16 -12 3 4 -13 16 -21 21 -21
13z"/>
<path d="M2096 2252 c-3 -5 1 -9 9 -9 8 0 12 4 9 9 -3 4 -7 8 -9 8 -2 0 -6 -4
-9 -8z"/>
<path d="M1595 2239 c-4 -6 -5 -12 -2 -15 2 -3 7 2 10 11 7 17 1 20 -8 4z"/>
<path d="M1564 2198 c-4 -7 -4 -10 1 -6 4 4 14 3 22 -4 11 -8 12 -7 7 6 -7 19
-20 21 -30 4z"/>
<path d="M1573 2165 c0 -8 4 -12 8 -9 4 2 10 -2 12 -8 4 -8 6 -9 6 -2 1 6 -5
17 -12 23 -10 8 -14 7 -14 -4z"/>
<path d="M2189 2058 c-5 -15 -4 -50 1 -53 3 -2 6 9 6 26 0 24 -3 37 -7 27z"/>
<path d="M2163 1955 c0 -7 6 -11 14 -8 7 3 13 6 13 8 0 2 -6 5 -13 8 -8 3 -14
-1 -14 -8z"/>
<path d="M1558 1897 c12 -13 19 -27 15 -32 -5 -4 -2 -5 5 -1 11 6 8 13 -9 32
-12 13 -25 24 -27 24 -3 0 4 -10 16 -23z"/>
<path d="M2518 2343 c7 -3 16 -2 19 1 4 3 -2 6 -13 5 -11 0 -14 -3 -6 -6z"/>
<path d="M2780 2331 c0 -10 19 -25 25 -20 1 2 -3 10 -11 17 -8 7 -14 8 -14 3z"/>
<path d="M2508 2323 c7 -3 16 -2 19 1 4 3 -2 6 -13 5 -11 0 -14 -3 -6 -6z"/>
<path d="M2855 2280 c3 -5 14 -10 23 -10 15 0 15 2 2 10 -20 13 -33 13 -25 0z"/>
<path d="M2810 2263 c0 -6 8 -17 18 -24 16 -13 16 -13 2 6 -8 11 -16 22 -17
24 -2 2 -3 0 -3 -6z"/>
<path d="M2375 2170 c-3 -5 -1 -10 4 -10 6 0 11 5 11 10 0 6 -2 10 -4 10 -3 0
-8 -4 -11 -10z"/>
<path d="M2920 2170 c-8 -5 -10 -10 -5 -10 6 0 17 5 25 10 8 5 11 10 5 10 -5
0 -17 -5 -25 -10z"/>
<path d="M2355 1861 c-3 -5 -2 -12 3 -15 5 -3 9 1 9 9 0 17 -3 19 -12 6z"/>
<path d="M2930 1859 c0 -5 5 -7 10 -4 6 3 10 8 10 11 0 2 -4 4 -10 4 -5 0 -10
-5 -10 -11z"/>
<path d="M2866 1789 c-11 -11 -15 -19 -9 -19 12 0 38 28 32 34 -2 2 -13 -5
-23 -15z"/>
<path d="M2410 1786 c0 -2 8 -10 18 -17 15 -13 16 -12 3 4 -13 16 -21 21 -21
13z"/>
<path d="M2814 1748 c-4 -5 -12 -7 -20 -4 -7 3 -16 1 -18 -3 -5 -7 35 -8 42
-1 1 1 6 3 11 4 17 2 21 13 6 13 -9 0 -18 -4 -21 -9z"/>
<path d="M3417 2312 l-27 -28 45 -45 c24 -24 45 -49 45 -54 0 -6 -20 -31 -45
-55 l-45 -44 27 -28 c15 -15 30 -28 35 -28 4 0 27 21 52 46 l44 47 50 -47 c28
-27 55 -44 63 -41 22 9 53 56 42 64 -5 3 -27 26 -48 50 l-39 43 49 44 49 44
-32 32 -32 32 -43 -42 c-23 -23 -49 -42 -56 -42 -7 0 -30 18 -51 40 -21 22
-42 40 -47 40 -5 0 -21 -13 -36 -28z"/>
<path d="M3390 1585 l0 -45 160 0 160 0 0 45 0 45 -160 0 -160 0 0 -45z"/>
<path d="M2163 1395 c3 -24 26 -65 27 -48 0 6 -5 15 -10 18 -6 4 -8 10 -6 14
3 4 0 13 -5 21 -7 12 -8 11 -6 -5z"/>
<path d="M2169 1173 c-13 -16 -12 -17 4 -4 16 13 21 21 13 21 -2 0 -10 -8 -17
-17z"/>
<path d="M1566 1161 c-3 -5 2 -15 12 -22 15 -12 16 -12 5 2 -7 9 -10 19 -6 22
3 4 4 7 0 7 -3 0 -8 -4 -11 -9z"/>
<path d="M2100 1041 c0 -6 4 -13 10 -16 6 -3 7 1 4 9 -7 18 -14 21 -14 7z"/>
<path d="M2035 989 c-3 -4 2 -6 10 -5 21 3 28 13 10 13 -9 0 -18 -4 -20 -8z"/>
<path d="M935 1541 c-3 -5 -2 -12 3 -15 5 -3 9 1 9 9 0 17 -3 19 -12 6z"/>
<path d="M1310 1520 c-12 -7 -10 -9 7 -7 12 0 19 5 17 9 -6 10 -6 10 -24 -2z"/>
<path d="M830 1465 c-11 -13 -10 -14 4 -9 9 3 16 10 16 15 0 13 -6 11 -20 -6z"/>
<path d="M849 1443 c-13 -16 -12 -17 4 -4 9 7 17 15 17 17 0 8 -8 3 -21 -13z"/>
<path d="M1370 1450 c0 -5 5 -10 11 -10 5 0 7 5 4 10 -3 6 -8 10 -11 10 -2 0
-4 -4 -4 -10z"/>
<path d="M1397 1401 c-4 -17 -3 -21 5 -13 5 5 8 16 6 23 -3 8 -7 3 -11 -10z"/>
<path d="M775 1359 c-4 -6 -5 -12 -2 -15 2 -3 7 2 10 11 7 17 1 20 -8 4z"/>
<path d="M1369 1143 c-12 -16 -12 -17 2 -6 9 7 20 9 24 5 5 -4 5 -1 1 6 -9 16
-11 15 -27 -5z"/>
<path d="M820 1106 c0 -2 8 -10 18 -17 15 -13 16 -12 3 4 -13 16 -21 21 -21
13z"/>
<path d="M861 1033 c-1 -17 16 -25 25 -12 4 7 3 9 -4 5 -5 -3 -13 0 -15 6 -4
9 -6 10 -6 1z"/>
<path d="M910 1006 c0 -2 8 -10 18 -17 15 -13 16 -12 3 4 -13 16 -21 21 -21
13z"/>
<path d="M2804 1536 c1 -8 5 -18 8 -22 4 -3 5 1 4 10 -1 8 -5 18 -8 22 -4 3
-5 -1 -4 -10z"/>
<path d="M2920 1474 c0 -6 7 -19 16 -30 14 -18 14 -18 3 6 -14 31 -19 36 -19
24z"/>
<path d="M2358 1453 c7 -3 16 -2 19 1 4 3 -2 6 -13 5 -11 0 -14 -3 -6 -6z"/>
<path d="M2325 1140 c3 -5 11 -10 16 -10 6 0 7 5 4 10 -3 6 -11 10 -16 10 -6
0 -7 -4 -4 -10z"/>
<path d="M2373 1101 c0 -11 5 -18 9 -15 4 3 5 11 1 19 -7 21 -12 19 -10 -4z"/>
<path d="M2903 1091 c-10 -16 -9 -19 3 -17 8 1 20 8 27 16 8 8 8 11 0 6 -6 -3
-13 -2 -15 4 -2 6 -8 2 -15 -9z"/>
<path d="M2380 1070 c-11 -7 -11 -10 -2 -10 7 0 11 -4 8 -9 -3 -4 4 -17 17
-27 22 -19 22 -19 6 1 -9 11 -15 28 -14 38 4 20 4 20 -15 7z"/>
<path d="M2805 1021 c-3 -5 -2 -12 3 -15 5 -3 9 1 9 9 0 17 -3 19 -12 6z"/>
<path d="M2470 986 c0 -3 9 -10 20 -16 11 -6 20 -8 20 -6 0 3 -9 10 -20 16
-11 6 -20 8 -20 6z"/>
<path d="M3510 1135 l0 -55 -60 0 -60 0 0 -45 0 -45 55 0 c37 0 56 -4 57 -12
0 -7 2 -17 3 -23 2 -5 3 -25 4 -42 1 -32 3 -33 41 -33 43 0 43 0 40 68 l-2 42
61 0 61 0 0 45 0 44 -57 3 -58 3 -3 53 -3 52 -40 0 -39 0 0 -55z"/>
<path d="M1160 810 c-8 -5 -10 -10 -5 -10 6 0 17 5 25 10 8 5 11 10 5 10 -5 0
-17 -5 -25 -10z"/>
<path d="M1300 766 c0 -2 8 -10 18 -17 15 -13 16 -12 3 4 -13 16 -21 21 -21
13z"/>
<path d="M859 723 c-13 -16 -12 -17 4 -4 9 7 17 15 17 17 0 8 -8 3 -21 -13z"/>
<path d="M785 449 c-4 -6 -5 -12 -2 -15 2 -3 7 2 10 11 7 17 1 20 -8 4z"/>
<path d="M1333 297 c1 -7 -4 -11 -12 -9 -12 3 -12 0 -2 -12 13 -16 36 -12 26
4 -3 4 0 10 7 12 8 3 6 7 -5 11 -10 4 -16 2 -14 -6z"/>
<path d="M1289 283 c-5 -26 -4 -72 0 -67 3 3 6 11 6 17 0 7 8 11 18 11 9 -1
14 3 11 8 -3 5 -13 7 -21 4 -11 -4 -13 -1 -8 14 4 11 4 20 1 20 -3 0 -7 -3 -7
-7z"/>
<path d="M1886 811 c-3 -5 1 -11 9 -14 9 -4 12 -1 8 9 -6 16 -10 17 -17 5z"/>
<path d="M1638 763 c7 -3 16 -2 19 1 4 3 -2 6 -13 5 -11 0 -14 -3 -6 -6z"/>
<path d="M2098 748 c9 -9 9 -15 -1 -27 -11 -14 -10 -14 6 -2 13 10 15 17 6 27
-6 8 -14 14 -17 14 -3 0 -1 -5 6 -12z"/>
<path d="M1565 650 c-19 -8 -19 -9 3 -9 12 -1 22 4 22 9 0 6 -1 10 -2 9 -2 0
-12 -4 -23 -9z"/>
<path d="M2166 652 c-3 -5 1 -9 9 -9 8 0 12 4 9 9 -3 4 -7 8 -9 8 -2 0 -6 -4
-9 -8z"/>
<path d="M1558 593 c6 -2 18 -2 25 0 6 3 1 5 -13 5 -14 0 -19 -2 -12 -5z"/>
<path d="M1555 570 c3 -5 8 -10 11 -10 2 0 4 5 4 10 0 6 -5 10 -11 10 -5 0 -7
-4 -4 -10z"/>
<path d="M2189 538 c-5 -15 -4 -50 1 -53 3 -2 6 9 6 26 0 24 -3 37 -7 27z"/>
<path d="M1560 460 c-8 -5 -12 -12 -9 -15 4 -3 12 1 19 10 14 17 11 19 -10 5z"/>
<path d="M2100 269 c0 -5 5 -7 10 -4 6 3 10 8 10 11 0 2 -4 4 -10 4 -5 0 -10
-5 -10 -11z"/>
<path d="M1912 192 l-22 -17 35 -1 c30 0 33 2 23 15 -7 9 -13 17 -13 18 0 1
-10 -6 -23 -15z"/>
<path d="M1810 197 c0 -2 6 -10 14 -16 11 -9 16 -9 22 1 4 7 4 10 -1 6 -4 -4
-14 -3 -22 3 -7 6 -13 9 -13 6z"/>
<path d="M2526 825 c-11 -8 -15 -15 -9 -15 6 0 16 7 23 15 16 19 11 19 -14 0z"/>
<path d="M2776 813 c-6 -14 -5 -15 5 -6 7 7 10 15 7 18 -3 3 -9 -2 -12 -12z"/>
<path d="M2419 763 c-13 -16 -12 -17 4 -4 16 13 21 21 13 21 -2 0 -10 -8 -17
-17z"/>
<path d="M2459 723 c-13 -16 -12 -17 4 -4 16 13 21 21 13 21 -2 0 -10 -8 -17
-17z"/>
<path d="M2810 736 c0 -2 8 -10 18 -17 15 -13 16 -12 3 4 -13 16 -21 21 -21
13z"/>
<path d="M2930 680 c0 -5 5 -10 11 -10 5 0 7 5 4 10 -3 6 -8 10 -11 10 -2 0
-4 -4 -4 -10z"/>
<path d="M2373 379 c1 -4 -6 -14 -15 -21 -13 -10 -15 -17 -7 -28 9 -13 10 -13
6 2 -5 14 16 33 34 30 3 0 6 5 6 12 0 7 -6 13 -13 13 -7 0 -12 -4 -11 -8z"/>
<path d="M2379 348 c-10 -34 -5 -48 29 -79 20 -19 29 -25 19 -13 -16 20 -16
21 7 32 17 8 27 7 37 -1 11 -10 11 -9 0 5 -12 16 -16 16 -41 3 -33 -17 -52 -3
-45 33 2 12 2 22 -1 22 -2 0 -4 -1 -5 -2z"/>
<path d="M2855 260 c-8 -13 5 -13 25 0 13 8 13 10 -2 10 -9 0 -20 -4 -23 -10z"/>
<path d="M2730 225 c0 -7 30 -13 34 -7 3 4 -4 9 -15 9 -10 1 -19 0 -19 -2z"/>
<path d="M2794 222 c4 -3 14 -7 22 -8 9 -1 13 0 10 4 -4 3 -14 7 -22 8 -9 1
-13 0 -10 -4z"/>
<path d="M2724 202 c3 -5 0 -13 -6 -15 -9 -4 -10 -6 -1 -6 17 -1 25 16 12 25
-7 4 -9 3 -5 -4z"/>
<path d="M3390 505 l0 -45 160 0 160 0 0 45 0 45 -160 0 -160 0 0 -45z"/>
<path d="M3390 375 l0 -45 160 0 160 0 0 45 0 45 -160 0 -160 0 0 -45z"/>
</g>
</svg>
